<svg width="11" height="15" viewBox="0 0 11 15" fill="none" xmlns="http://www.w3.org/2000/svg">
<path fill-rule="evenodd" clip-rule="evenodd" d="M5.5 6.875C4.74054 6.875 4.125 6.25946 4.125 5.5C4.125 4.74054 4.74054 4.125 5.5 4.125C6.25946 4.125 6.875 4.74054 6.875 5.5C6.875 6.25946 6.25946 6.875 5.5 6.875ZM5.5 3.20833C4.23454 3.20833 3.20833 4.23408 3.20833 5.5C3.20833 6.76592 4.23454 7.79167 5.5 7.79167C6.76546 7.79167 7.79167 6.76592 7.79167 5.5C7.79167 4.23408 6.76546 3.20833 5.5 3.20833ZM5.5 13.2917C4.73779 13.2958 0.916667 7.41629 0.916667 5.5C0.916667 2.96908 2.96863 0.916667 5.5 0.916667C8.03137 0.916667 10.0833 2.96908 10.0833 5.5C10.0833 7.39062 6.25029 13.2958 5.5 13.2917ZM5.5 0C2.46263 0 0 2.46263 0 5.5C0 7.79992 4.58563 14.6717 5.5 14.6667C6.40017 14.6717 11 7.76875 11 5.5C11 2.46263 8.53738 0 5.5 0Z" fill="#6B6B6B"/>
</svg>
